<svg width="25" height="25" viewBox="0 0 25 25" fill="none" xmlns="http://www.w3.org/2000/svg">
<path d="M0.379883 11.2908C0.423248 10.9188 0.456012 10.5459 0.510942 10.1758C1.01206 6.81067 2.63103 4.11044 5.34668 2.06455C6.54649 1.1655 7.90293 0.49725 9.34692 0.0938241C9.72275 -0.014108 10.0861 0.099606 10.2884 0.38871C10.4908 0.677814 10.4908 1.0363 10.2268 1.36588C9.46122 2.31322 8.90782 3.41377 8.60392 4.59325C8.05944 6.71334 8.21845 8.77273 9.13588 10.7608C10.1053 12.8549 11.6684 14.3601 13.7789 15.2747C15.2899 15.9328 16.9548 16.1558 18.5857 15.9184C20.2404 15.6881 21.7032 15.026 23.0119 13.9978C23.1841 13.8523 23.3887 13.7502 23.6084 13.7C24.1693 13.6094 24.5625 14.0653 24.4295 14.6174C23.9838 16.5417 23.0751 18.328 21.7822 19.8213C20.1989 21.6456 18.2436 22.9051 15.9221 23.5556C12.2601 24.5732 8.81689 24.0374 5.6753 21.8951C2.98663 20.0642 1.32139 17.5046 0.634284 14.3226C0.526352 13.8263 0.492629 13.3155 0.423244 12.8115C0.41168 12.7277 0.394338 12.6458 0.379883 12.5629V11.2908ZM7.67783 2.5011C3.94453 4.41015 1.40716 8.72165 2.18485 13.5054C2.96832 18.3421 6.87123 21.953 11.7976 22.3712C16.5196 22.7711 20.4475 19.9726 22.135 16.5506C17.702 18.3912 13.5274 17.9961 10.0128 14.5924C6.49828 11.1887 5.95959 7.01208 7.67783 2.49628V2.5011Z" fill="#3B3F5C"/>
</svg>
