<svg width="85" height="64" viewBox="0 0 85 64" fill="none" xmlns="http://www.w3.org/2000/svg">
<g clip-path="url(#clip0_244_4722)">
<path d="M62.711 34.7627H75.3965L69.05 22.8612L62.711 34.7627ZM54.1787 43.5438L67.0526 20.208H71.2509L84.3584 43.5438H80.0169L77.0019 37.7701H61.0754L58.068 43.5438H54.1787Z" fill="white"/>
<path d="M12.3915 23.3285H3.91944V40.3027H12.3915C16.032 40.3027 18.6475 39.6997 20.2228 38.4862C21.9564 37.1898 22.8157 34.9285 22.8157 31.7251C22.8157 28.6348 21.9489 26.449 20.2228 25.1375C18.6098 23.939 16.0019 23.3285 12.3915 23.3285ZM20.9916 42.27C19.1299 43.1217 16.4391 43.5438 12.9492 43.5438H0V20.208H12.9492C17.0797 20.208 20.0947 20.811 21.979 22.017C23.5016 22.9818 24.6925 24.3234 25.5593 26.0419C26.4261 27.7605 26.8557 29.6599 26.8557 31.7402C26.8557 32.298 26.8331 32.8407 26.7804 33.3683L20.9916 42.27Z" fill="white"/>
<path d="M64.4138 0C53.6203 4.83901 44.1835 11.5021 36.3145 19.4691H39.3445C46.6558 11.9995 55.0524 5.42692 64.4138 0Z" fill="white"/>
<path d="M14.8714 53.7488C13.688 57.1029 12.7006 60.5249 11.9092 63.9996C13.1001 60.5173 14.4568 57.1029 15.9643 53.7488C20.7656 43.0532 27.1724 33.0586 34.9962 24.1494H31.9888C24.4589 32.9079 18.6702 42.9627 14.8714 53.7488Z" fill="white"/>
<path d="M44.2368 23.3888V43.5438H40.3174V23.3888H29.5615V20.208H55.0681V23.3888H44.2368Z" fill="white"/>
</g>
<defs>
<clipPath id="clip0_244_4722">
<rect width="84.3585" height="64" fill="white"/>
</clipPath>
</defs>
</svg>
