<svg width="25" height="24" viewBox="0 0 25 24" fill="none" xmlns="http://www.w3.org/2000/svg">
<path d="M12.1866 0C12.6836 0.198794 12.8506 0.57551 12.8327 1.09337C12.8099 1.77225 12.8327 2.45113 12.8208 3.13002C12.8182 3.32333 12.7742 3.51384 12.6916 3.68863C12.6101 3.83721 12.4827 3.95534 12.3283 4.02524C12.174 4.09515 12.0012 4.11306 11.8358 4.07628C11.6744 4.04184 11.5271 3.95993 11.4126 3.84108C11.2982 3.72222 11.2219 3.57186 11.1937 3.40932C11.1779 3.30138 11.1706 3.19238 11.1718 3.0833C11.1718 2.42032 11.1887 1.75635 11.1648 1.09536C11.1469 0.578491 11.3179 0.200781 11.8109 0.00198685L12.1866 0Z" fill="white"/>
<path d="M24.0025 12.1891C23.8037 12.6861 23.427 12.8521 22.9092 12.8352C22.2303 12.8113 21.5504 12.8352 20.8715 12.8232C20.6782 12.8207 20.4877 12.7766 20.3129 12.694C20.1644 12.6125 20.0464 12.485 19.9765 12.3307C19.9066 12.1764 19.8886 12.0036 19.9253 11.8382C19.9597 11.6769 20.0416 11.5295 20.1605 11.4151C20.2793 11.3006 20.4297 11.2244 20.5922 11.1961C20.7002 11.1804 20.8092 11.1731 20.9182 11.1742C21.5822 11.1742 22.2462 11.1901 22.9062 11.1673C23.423 11.1494 23.8008 11.3203 23.9996 11.8134L24.0025 12.1891Z" fill="white"/>
<path d="M12.0018 18.0358C8.7217 18.0358 5.97635 15.2984 5.96342 12.0063C5.9505 8.7143 8.67995 5.99181 11.9869 5.96696C15.267 5.94211 18.0501 8.72523 18.0342 12.0053C18.0183 15.3073 15.2919 18.0338 12.0018 18.0358ZM11.965 16.3778C14.3883 16.4235 16.3147 14.531 16.3763 12.0461C16.4359 9.62279 14.5185 7.67262 12.0326 7.62491C9.61031 7.57918 7.68399 9.47071 7.62236 11.9556C7.56173 14.3789 9.4801 16.3321 11.965 16.3778Z" fill="white"/>
<path d="M2.02654 12.8277C1.62895 12.8277 1.23136 12.8396 0.83377 12.8277C0.392446 12.8108 0.0962425 12.5574 0.0137428 12.1608C-0.0192746 11.9829 0.0075908 11.7991 0.0901411 11.6381C0.172691 11.4772 0.306267 11.3481 0.469973 11.2712C0.598252 11.2137 0.736968 11.1833 0.877505 11.1817C1.65777 11.1727 2.43903 11.1698 3.2193 11.1817C3.67355 11.1877 4.01447 11.4709 4.07709 11.8646C4.11065 12.0508 4.07767 12.243 3.98392 12.4074C3.89017 12.5719 3.74161 12.6981 3.56421 12.7641C3.43156 12.8086 3.29261 12.8314 3.1527 12.8317C2.77797 12.8406 2.40325 12.8317 2.02852 12.8317L2.02654 12.8277Z" fill="white"/>
<path d="M11.1871 21.946C11.1871 21.5017 11.1643 21.0515 11.1941 20.6141C11.2128 20.4333 11.2942 20.2647 11.4242 20.1376C11.5542 20.0105 11.7245 19.9329 11.9058 19.9183C12.0896 19.8974 12.275 19.9397 12.4315 20.0384C12.588 20.137 12.7062 20.2861 12.7665 20.461C12.8008 20.5568 12.819 20.6575 12.8202 20.7592C12.8202 21.5544 12.8361 22.3496 12.8202 23.1448C12.8063 23.761 12.2417 24.1576 11.71 23.9399C11.3452 23.7928 11.1742 23.5016 11.1702 23.113C11.1662 22.7243 11.1702 22.3327 11.1702 21.943L11.1871 21.946Z" fill="white"/>
<path d="M18.2013 17.3037C18.3742 17.3962 18.58 17.4558 18.7171 17.586C19.3135 18.1516 19.8861 18.734 20.4586 19.3185C20.8005 19.6684 20.8005 20.1455 20.4794 20.4705C20.1584 20.7955 19.6694 20.8025 19.3105 20.4506C18.736 19.8894 18.1678 19.3215 17.6059 18.747C17.4828 18.6361 17.3983 18.489 17.3645 18.3269C17.3308 18.1648 17.3495 17.9962 17.418 17.8454C17.4893 17.6941 17.5993 17.5644 17.7368 17.4692C17.8743 17.3741 18.0346 17.317 18.2013 17.3037Z" fill="white"/>
<path d="M6.61454 5.84696C6.61569 5.99642 6.5741 6.14309 6.49468 6.2697C6.41526 6.39632 6.30132 6.4976 6.16626 6.56162C6.03547 6.6351 5.88539 6.66695 5.73603 6.65292C5.58668 6.63889 5.44515 6.57965 5.33033 6.4831C5.17456 6.35269 5.02685 6.21295 4.88802 6.06464C4.43377 5.61238 3.97753 5.1631 3.53025 4.70488C3.17739 4.34308 3.16546 3.86001 3.48751 3.532C3.80955 3.20399 4.30356 3.20299 4.68027 3.56877C5.2359 4.11844 5.78457 4.67407 6.33822 5.22473C6.42526 5.30333 6.49483 5.39933 6.54243 5.50651C6.59003 5.6137 6.61459 5.72968 6.61454 5.84696Z" fill="white"/>
<path d="M17.3765 5.74012C17.4262 5.64072 17.4759 5.43298 17.611 5.29681C18.1875 4.69148 18.7809 4.10404 19.3803 3.51958C19.5283 3.36708 19.7309 3.27963 19.9434 3.27646C20.1559 3.27329 20.3609 3.35466 20.5134 3.50268C20.6659 3.65071 20.7534 3.85325 20.7566 4.06575C20.7597 4.27825 20.6784 4.48331 20.5303 4.63582C19.9406 5.24876 19.3382 5.85045 18.7233 6.44087C18.6119 6.55404 18.4669 6.6281 18.3099 6.65193C18.153 6.67576 17.9925 6.64809 17.8526 6.57307C17.5484 6.42993 17.4023 6.17448 17.3765 5.74012Z" fill="white"/>
<path d="M6.61983 18.2665C6.56914 18.3659 6.5095 18.5786 6.37432 18.7208C5.80279 19.3171 5.21435 19.9036 4.62095 20.4811C4.54799 20.5567 4.46083 20.6173 4.36448 20.6592C4.26812 20.7012 4.16444 20.7237 4.05936 20.7256C3.95427 20.7275 3.84985 20.7087 3.75204 20.6702C3.65423 20.6318 3.56496 20.5744 3.48931 20.5015C3.41367 20.4285 3.35314 20.3413 3.31118 20.245C3.26922 20.1486 3.24665 20.0449 3.24476 19.9399C3.24287 19.8348 3.26169 19.7303 3.30015 19.6325C3.33862 19.5347 3.39597 19.4455 3.46894 19.3698C4.05836 18.7555 4.66171 18.1552 5.27598 17.5638C5.38691 17.4503 5.53158 17.3759 5.68836 17.3515C5.84513 17.3271 6.00559 17.3542 6.14571 17.4286C6.44589 17.5697 6.59796 17.8232 6.61983 18.2665Z" fill="white"/>
</svg>
